<svg width="918" height="875" viewBox="0 0 918 875" fill="none" xmlns="http://www.w3.org/2000/svg">
<path d="M265 361H653L918 875H0L265 361Z" fill="#CBCBCB"/>
<path d="M265 100C265 44.7715 309.772 0 365 0H553C608.228 0 653 44.7715 653 100V361H265V100Z" fill="#696969"/>
<path d="M444.823 704.554C445.062 699.21 449.464 695 454.814 695H473.186C478.536 695 482.938 699.21 483.177 704.554L488.534 824.554C488.788 830.246 484.242 835 478.544 835H449.456C443.759 835 439.212 830.246 439.466 824.554L444.823 704.554Z" fill="#02735E"/>
<path d="M450.451 484.418C450.759 479.13 455.137 475 460.434 475H467.566C472.863 475 477.241 479.13 477.549 484.418L483.383 584.418C483.718 590.16 479.151 595 473.4 595H454.6C448.849 595 444.282 590.16 444.617 584.418L450.451 484.418Z" fill="#02735E"/>
</svg>
